{"title":"BattleShip 2012 TS XViD AC3-ADTRG","uid":7287540,"size":1651127524,"categoryP":"video","categoryS":"movies","magnet":"?xt=urn:btih:2abc380945bc2d81866fdc13f838ac34b9aed04b&amp;dn=BattleShip+2012+TS+XViD+AC3-ADTRG&amp;tr=udp%3A%2F%2Ftracker.openbittorrent.com%3A80&amp;tr=udp%3A%2F%2Fopen.demonii.com%3A1337&amp;tr=udp%3A%2F%2Ftracker.coppersurfer.tk%3A6969&amp;tr=udp%3A%2F%2Fexodus.desync.com%3A6969","seeders":4,"leechers":1,"uploader":"HeroMaster","files":-1,"time":1337629753,"description":"BattleShip.2012.TS.XViD.AC3-ADTRG\n &lt;a href=&quot;\nhttp://www.imdb.com/title/tt1440129/&quot; rel=&quot;nofollow&quot; target=&quot;_NEW&quot;&gt;\nhttp://www.imdb.com/title/tt1440129/&lt;/a&gt;\n\nSource - 720p Cam SMY Thanks\nSource - missing scenes - Twix Thanks\nSource - LiNe Audio - Dragon Exclusive Thanks, awesome work bro\n\nComplete name: BattleShip.2012.TS.XViD.AC3-ADTRG.avi\nFormat: AVI\nFormat/Info: Audio Video Interleave\nFile size: 1.53 GiB\nDuration: 2h 1mn\nOverall bit rate: 1 800 Kbps\nWriting library: VirtualDub build 34703/release\n\nVideo\nID: 0\nFormat: MPEG-4 Visual\nCodec ID: XVID\nBit rate: 1 598 Kbps\nWidth: 720 pixels\nHeight: 320 pixels\nDisplay aspect ratio: 2.25:1\nFrame rate: 30.000 fps\nStream size: 1.36 GiB (89%)\n\nAudio\nID: 1\nFormat: AC-3\nBit rate: 192 Kbps\nChannel(s): 2 channels\nChannel positions: Front: L R\nStream size: 165 MiB (11%) Encoder - Jiinx\n\n\nPoster:\n\n &lt;a href=&quot;\nhttp://i.imgur.com/Zl18M.jpg&quot; rel=&quot;nofollow&quot; target=&quot;_NEW&quot;&gt;\nhttp://i.imgur.com/Zl18M.jpg&lt;/a&gt;\n\n\nScreens:\n\n &lt;a href=&quot;\nhttp://i.imgur.com/3clGl.jpg&quot; rel=&quot;nofollow&quot; target=&quot;_NEW&quot;&gt;\nhttp://i.imgur.com/3clGl.jpg&lt;/a&gt;\n\n &lt;a href=&quot;\nhttp://i.imgur.com/jHn3c.jpg&quot; rel=&quot;nofollow&quot; target=&quot;_NEW&quot;&gt;\nhttp://i.imgur.com/jHn3c.jpg&lt;/a&gt;\n\n &lt;a href=&quot;\nhttp://i.imgur.com/Io8fD.jpg&quot; rel=&quot;nofollow&quot; target=&quot;_NEW&quot;&gt;\nhttp://i.imgur.com/Io8fD.jpg&lt;/a&gt;\n\n\nENJOY!","torrent":{"xt":"urn:btih:2abc380945bc2d81866fdc13f838ac34b9aed04b","amp;dn":"BattleShip+2012+TS+XViD+AC3-ADTRG","amp;tr":["udp%3A%2F%2Ftracker.openbittorrent.com%3A80","udp%3A%2F%2Fopen.demonii.com%3A1337","udp%3A%2F%2Ftracker.coppersurfer.tk%3A6969","udp%3A%2F%2Fexodus.desync.com%3A6969"],"infoHash":"2abc380945bc2d81866fdc13f838ac34b9aed04b","infoHashBuffer":{"type":"Buffer","data":[42,188,56,9,69,188,45,129,134,111,220,19,248,56,172,52,185,174,208,75]},"announce":[],"urlList":[]}}